<?xml version="1.0" standalone="no"?>
<!DOCTYPE svg PUBLIC "-//W3C//DTD SVG 20010904//EN"
 "http://www.w3.org/TR/2001/REC-SVG-20010904/DTD/svg10.dtd">
<svg version="1.0" xmlns="http://www.w3.org/2000/svg"
 width="500.000000pt" height="500.000000pt" viewBox="0 0 500.000000 500.000000"
 preserveAspectRatio="xMidYMid meet">
<metadata>
Created by potrace 1.14, written by Peter Selinger 2001-2017
</metadata>
<g transform="translate(0.000000,500.000000) scale(0.100000,-0.100000)"
fill="#000000" stroke="none">
<path d="M1888 3655 c-2 -1 -70 -6 -153 -9 -82 -4 -181 -8 -220 -11 -108 -6
-287 -14 -425 -20 -69 -3 -156 -8 -195 -10 -38 -2 -126 -7 -195 -10 -267 -13
-282 -14 -306 -30 -13 -8 -25 -23 -25 -33 -1 -9 -3 -26 -4 -37 -2 -11 -6 -47
-9 -80 -4 -33 -9 -73 -11 -90 -2 -16 -7 -70 -11 -120 -3 -49 -7 -97 -9 -105
-1 -8 -6 -62 -10 -120 -4 -58 -9 -113 -11 -124 -2 -10 -6 -62 -9 -115 -4 -53
-8 -112 -10 -131 -2 -19 -6 -73 -9 -120 -3 -47 -8 -121 -12 -165 -3 -44 -7
-116 -9 -160 -2 -44 -6 -127 -9 -185 -12 -215 -22 -484 -31 -885 -3 -152 5
-187 47 -201 21 -7 255 -7 493 1 93 3 101 5 122 30 l23 26 0 394 c0 217 4 396
8 399 5 3 19 7 33 10 13 3 34 7 47 10 54 14 74 18 192 40 69 13 152 27 185 30
33 4 74 9 90 11 52 8 118 15 190 20 39 3 79 8 90 10 11 2 28 4 38 4 9 1 26 10
37 21 19 19 20 33 20 280 l0 261 -27 26 c-28 25 -29 25 -153 19 -69 -4 -154
-8 -190 -11 -74 -5 -185 -11 -345 -21 -60 -3 -132 -7 -158 -9 l-49 -3 7 77 c7
82 10 113 20 236 12 149 14 154 70 156 17 0 39 2 50 4 11 2 47 7 80 10 33 3
67 8 75 10 8 2 42 7 75 11 33 3 69 8 80 9 11 2 45 6 75 9 30 4 91 12 135 17
44 6 98 13 120 15 53 6 192 24 230 30 102 15 113 28 120 135 2 41 7 119 10
174 3 55 8 139 10 186 5 81 4 86 -20 109 -20 19 -37 24 -89 26 -36 1 -66 1
-68 -1z m-998 -134 c0 -17 -15 -19 -28 -5 -11 12 -9 14 8 14 11 0 20 -4 20 -9z
m40 -6 c0 -8 -7 -15 -15 -15 -8 0 -15 7 -15 15 0 8 7 15 15 15 8 0 15 -7 15
-15z m-364 -43 c-10 -10 -29 15 -21 28 6 9 10 8 17 -4 6 -10 7 -20 4 -24z
m924 -62 c0 -5 -5 -10 -11 -10 -5 0 -7 5 -4 10 3 6 8 10 11 10 2 0 4 -4 4 -10z
m-752 -252 c-6 -18 -28 -21 -28 -4 0 9 7 16 16 16 9 0 14 -5 12 -12z m-3 -286
c-22 -5 -29 3 -21 25 7 17 8 17 22 -2 13 -18 13 -20 -1 -23z m95 -296 c0 -12
-10 -14 -38 -7 -2 1 0 6 3 11 9 15 35 12 35 -4z m-100 -21 c-14 -16 -46 -20
-54 -6 -9 13 5 21 37 21 25 0 28 -2 17 -15z m-45 -175 c3 -5 -1 -10 -9 -10 -9
0 -16 -4 -16 -10 0 -5 -13 -10 -30 -10 -40 0 -38 17 3 29 43 12 45 12 52 1z
m898 -219 c4 -104 2 -150 -5 -143 -8 8 -12 126 -9 271 2 78 9 16 14 -128z
m-687 -142 c3 -5 -1 -9 -8 -10 -7 0 -21 -2 -30 -4 -9 -2 -25 3 -35 11 -15 11
-16 15 -4 23 15 10 67 -4 77 -20z m-603 -402 c-9 -16 -26 12 -18 30 7 17 8 17
15 -2 4 -11 5 -24 3 -28z m177 -316 c0 -16 -28 -20 -34 -5 -4 9 1 14 14 14 11
0 20 -4 20 -9z m-2 -274 c2 -10 -3 -17 -12 -17 -10 0 -16 9 -16 21 0 24 23 21
28 -4z"/>
<path d="M3958 3642 c-9 -2 -20 -12 -23 -23 -4 -11 -13 -18 -20 -16 -7 3 -18
-6 -24 -19 -20 -45 -46 -42 257 -30 119 5 133 4 130 -11 -3 -18 -26 -21 -264
-27 -177 -5 -164 -4 -164 -16 0 -10 -69 -180 -144 -352 -8 -18 -26 -62 -41
-98 -14 -36 -35 -84 -46 -107 -10 -24 -19 -45 -19 -48 0 -3 -9 -24 -19 -48
-11 -23 -32 -71 -46 -107 -15 -36 -35 -83 -45 -105 -9 -22 -36 -86 -60 -142
-23 -57 -45 -103 -49 -103 -3 0 -17 39 -30 88 -30 109 -43 155 -74 262 -14 47
-62 213 -107 370 -45 157 -91 303 -102 325 -41 79 -41 80 -163 83 -136 4 -163
6 -170 13 -3 3 -33 1 -68 -6 -34 -6 -87 -10 -117 -7 -30 2 -91 5 -136 5 -81 0
-81 0 -76 25 4 22 6 23 17 9 7 -10 16 -13 26 -7 8 5 22 7 33 4 10 -3 29 -1 41
6 16 9 39 10 72 5 26 -5 53 -9 58 -10 6 -1 22 5 36 13 23 13 38 12 123 -2 91
-16 222 -23 232 -13 2 2 -19 16 -46 31 -42 23 -54 25 -66 15 -11 -9 -18 -9
-26 -1 -9 9 -8 12 2 12 11 1 10 3 -3 11 -32 19 -455 9 -494 -12 -35 -19 -38
-36 -48 -307 -7 -196 -14 -359 -30 -677 -8 -170 -15 -301 -20 -400 -3 -49 -8
-139 -10 -200 -5 -108 -10 -197 -20 -405 -11 -214 -14 -278 -20 -420 -4 -80
-8 -163 -10 -185 -8 -106 18 -129 143 -128 48 1 140 1 205 2 65 1 116 5 113
10 -8 12 39 31 54 21 7 -5 51 -8 97 -8 75 0 85 2 98 21 10 16 15 76 20 226 3
113 8 208 11 212 2 4 0 10 -6 14 -6 4 -8 11 -4 16 3 6 8 94 11 197 3 103 6
188 8 190 1 2 42 -118 90 -265 96 -295 103 -311 143 -348 47 -45 82 -58 152
-58 100 0 178 47 249 151 13 18 60 108 105 200 45 92 103 210 129 262 l47 95
-6 -110 c-3 -60 -7 -137 -9 -170 -2 -33 -6 -103 -9 -155 -4 -52 -9 -135 -12
-185 -16 -258 -15 -273 27 -295 22 -12 110 -16 467 -22 l184 -3 24 28 24 28
-4 812 c-3 447 -6 973 -7 1170 -1 390 -7 450 -55 536 -53 99 -132 158 -235
177 -45 8 -250 12 -281 6z m257 -51 c2 -4 -9 -5 -26 -3 -16 2 -29 8 -29 12 0
9 48 1 55 -9z m-192 -16 c1 -6 -11 -11 -28 -13 -29 -2 -29 -2 -10 13 20 16 35
16 38 0z m-943 -499 c0 -8 -7 -16 -15 -20 -17 -6 -18 -4 -9 18 8 20 24 21 24
2z m1128 -65 c3 -8 -1 -12 -9 -9 -7 2 -15 10 -17 17 -3 8 1 12 9 9 7 -2 15
-10 17 -17z m-93 -32 c9 -13 3 -19 -24 -24 -23 -4 -24 -4 -15 19 7 18 30 21
39 5z m-1090 -99 c3 -6 -1 -7 -9 -4 -18 7 -21 14 -7 14 6 0 13 -4 16 -10z
m1185 -58 c0 -4 -9 -8 -20 -9 -11 -1 -18 2 -15 8 7 11 35 12 35 1z m-110 -492
c0 -5 -4 -10 -10 -10 -5 0 -10 5 -10 10 0 6 5 10 10 10 6 0 10 -4 10 -10z
m-682 -57 c6 -19 -35 -16 -42 3 -4 11 0 15 16 12 12 -2 23 -9 26 -15z m582
-79 c0 -8 -5 -12 -10 -9 -6 4 -8 11 -5 16 9 14 15 11 15 -7z m-650 -26 c0 -4
-4 -8 -9 -8 -6 0 -12 4 -15 8 -3 5 1 9 9 9 8 0 15 -4 15 -9z m-1007 -18 c3
-11 1 -23 -4 -26 -5 -3 -9 6 -9 20 0 31 6 34 13 6z m1312 -20 c0 -9 -11 -16
-27 -18 -30 -4 -36 6 -16 26 16 16 43 11 43 -8z m-195 -45 c0 -10 -10 -15 -30
-15 -49 0 -34 24 18 29 6 0 12 -6 12 -14z m-1116 -10 c-4 -8 -8 -15 -10 -15
-2 0 -4 7 -4 15 0 8 4 15 10 15 5 0 7 -7 4 -15z m1031 -65 c3 -5 1 -10 -4 -10
-6 0 -11 5 -11 10 0 6 2 10 4 10 3 0 8 -4 11 -10z m299 -9 c4 -5 -1 -8 -9 -7
-21 3 -31 16 -12 16 9 0 18 -4 21 -9z m-1344 -107 c0 -34 -4 -53 -10 -49 -5 3
-10 28 -10 56 0 27 5 49 10 49 6 0 10 -25 10 -56z m1094 1 c4 -11 -1 -15 -19
-15 -29 0 -34 16 -7 23 9 3 18 5 18 6 1 0 4 -6 8 -14z m139 -20 c-1 -5 -8 -14
-17 -20 -18 -11 -42 7 -31 25 8 13 51 9 48 -5z m-1227 -164 c-4 -42 -10 -101
-14 -131 -8 -76 -9 -406 0 -514 7 -78 5 -91 -11 -112 -19 -24 -19 -24 -24 -3
-5 20 -3 92 8 209 3 40 -3 104 -21 195 -3 17 -9 79 -12 139 -7 107 -7 110 18
140 20 23 25 43 28 97 3 55 7 66 19 62 13 -5 14 -19 9 -82z m1178 74 c20 -15
20 -15 0 -16 -46 -3 -67 7 -44 21 19 12 21 12 44 -5z m114 -23 c-7 -8 -12 -17
-10 -19 1 -1 2 -10 2 -19 0 -25 -44 -13 -48 13 -4 29 36 67 55 51 11 -9 11
-14 1 -26z m-181 -38 c-3 -3 -12 -4 -19 -1 -8 3 -5 6 6 6 11 1 17 -2 13 -5z
m662 -245 c-14 -8 -39 -1 -39 11 0 14 24 18 38 7 10 -8 10 -12 1 -18z m-700
-121 c18 -6 21 -12 13 -20 -13 -13 -95 19 -86 34 5 8 22 5 73 -14z m99 -20
c19 -19 14 -29 -8 -16 -20 13 -27 28 -12 28 4 0 13 -5 20 -12z m-623 -23 c0
-5 -10 -11 -22 -13 -16 -2 -23 2 -23 13 0 11 7 15 23 13 12 -2 22 -7 22 -13z
m-175 -35 c0 -5 -7 -10 -15 -10 -8 0 -15 5 -15 10 0 6 7 10 15 10 8 0 15 -4
15 -10z m-80 -125 c0 -9 -6 -12 -15 -9 -8 4 -15 10 -15 15 0 5 7 9 15 9 8 0
15 -7 15 -15z m255 -120 c0 -14 -4 -23 -10 -22 -5 2 -10 8 -10 13 0 5 -3 14
-7 20 -9 14 0 24 15 18 7 -2 12 -15 12 -29z"/>
</g>
</svg>
